<svg xmlns="http://www.w3.org/2000/svg" xmlns:xlink="http://www.w3.org/1999/xlink" width="1366" zoomAndPan="magnify" viewBox="0 0 1024.5 576" height="768" preserveAspectRatio="xMidYMid meet" version="1.0"><defs><filter x="0%" y="0%" width="100%" height="100%" id="260712130f"><feColorMatrix values="0 0 0 0 1 0 0 0 0 1 0 0 0 0 1 0 0 0 1 0" color-interpolation-filters="sRGB"></feColorMatrix></filter><mask id="740dfd7f90"><g filter="url(#260712130f)"><rect x="-102.45" width="1229.4" fill="#000000" y="-57.6" height="691.2" fill-opacity="0.23"></rect></g></mask><clipPath id="4e074cf735"><path d="M 0.261719 0.261719 L 377.738281 0.261719 L 377.738281 377.738281 L 0.261719 377.738281 Z M 0.261719 0.261719 " clip-rule="nonzero"></path></clipPath><clipPath id="22a35c022b"><path d="M 189 0.261719 C 84.765625 0.261719 0.261719 84.765625 0.261719 189 C 0.261719 293.234375 84.765625 377.738281 189 377.738281 C 293.238281 377.738281 377.738281 293.234375 377.738281 189 C 377.738281 84.765625 293.238281 0.261719 189 0.261719 Z M 189 0.261719 " clip-rule="nonzero"></path></clipPath><clipPath id="8e1091746e"><path d="M 0.261719 0.261719 L 377.738281 0.261719 L 377.738281 377.738281 L 0.261719 377.738281 Z M 0.261719 0.261719 " clip-rule="nonzero"></path></clipPath><clipPath id="152dd6b826"><path d="M 189 0.261719 C 84.765625 0.261719 0.261719 84.765625 0.261719 189 C 0.261719 293.234375 84.765625 377.738281 189 377.738281 C 293.238281 377.738281 377.738281 293.234375 377.738281 189 C 377.738281 84.765625 293.238281 0.261719 189 0.261719 Z M 189 0.261719 " clip-rule="nonzero"></path></clipPath><clipPath id="d192d34e24"><rect x="0" width="378" y="0" height="378"></rect></clipPath><clipPath id="575b795db7"><rect x="0" width="378" y="0" height="378"></rect></clipPath><mask id="1778e7a969"><g filter="url(#260712130f)"><rect x="-102.45" width="1229.4" fill="#000000" y="-57.6" height="691.2" fill-opacity="0.23"></rect></g></mask><clipPath id="a4f3abdee4"><path d="M 0.363281 0.183594 L 295.636719 0.183594 L 295.636719 295.457031 L 0.363281 295.457031 Z M 0.363281 0.183594 " clip-rule="nonzero"></path></clipPath><clipPath id="ee70ed27fe"><path d="M 148 0.183594 C 66.464844 0.183594 0.363281 66.285156 0.363281 147.820312 C 0.363281 229.359375 66.464844 295.457031 148 295.457031 C 229.535156 295.457031 295.636719 229.359375 295.636719 147.820312 C 295.636719 66.285156 229.535156 0.183594 148 0.183594 Z M 148 0.183594 " clip-rule="nonzero"></path></clipPath><clipPath id="2c14b11bf3"><path d="M 0.363281 0.183594 L 295.636719 0.183594 L 295.636719 295.457031 L 0.363281 295.457031 Z M 0.363281 0.183594 " clip-rule="nonzero"></path></clipPath><clipPath id="c9a5e2f4fc"><path d="M 148 0.183594 C 66.464844 0.183594 0.363281 66.285156 0.363281 147.820312 C 0.363281 229.359375 66.464844 295.457031 148 295.457031 C 229.535156 295.457031 295.636719 229.359375 295.636719 147.820312 C 295.636719 66.285156 229.535156 0.183594 148 0.183594 Z M 148 0.183594 " clip-rule="nonzero"></path></clipPath><clipPath id="92d73cdafe"><rect x="0" width="296" y="0" height="296"></rect></clipPath><clipPath id="cfd73a94d5"><rect x="0" width="296" y="0" height="296"></rect></clipPath></defs><g mask="url(#740dfd7f90)"><g transform="matrix(1, 0, 0, 1, 323, 99)"><g clip-path="url(#575b795db7)"><g clip-path="url(#4e074cf735)"><g clip-path="url(#22a35c022b)"><g transform="matrix(1, 0, 0, 1, 0, -0.000000000000056843)"><g clip-path="url(#d192d34e24)"><g clip-path="url(#8e1091746e)"><g clip-path="url(#152dd6b826)"><path fill="#084fb9" d="M 0.261719 0.261719 L 377.738281 0.261719 L 377.738281 377.738281 L 0.261719 377.738281 Z M 0.261719 0.261719 " fill-opacity="1" fill-rule="nonzero"></path></g></g></g></g></g></g></g></g></g><g mask="url(#1778e7a969)"><g transform="matrix(1, 0, 0, 1, 364, 124)"><g clip-path="url(#cfd73a94d5)"><g clip-path="url(#a4f3abdee4)"><g clip-path="url(#ee70ed27fe)"><g transform="matrix(1, 0, 0, 1, 0, -0.000000000000056843)"><g clip-path="url(#92d73cdafe)"><g clip-path="url(#2c14b11bf3)"><g clip-path="url(#c9a5e2f4fc)"><path fill="#084fb9" d="M 0.363281 0.183594 L 295.636719 0.183594 L 295.636719 295.457031 L 0.363281 295.457031 Z M 0.363281 0.183594 " fill-opacity="1" fill-rule="nonzero"></path></g></g></g></g></g></g></g></g></g></svg>